<?xml version="1.0" standalone="no"?>
<!DOCTYPE svg PUBLIC "-//W3C//DTD SVG 20010904//EN"
 "http://www.w3.org/TR/2001/REC-SVG-20010904/DTD/svg10.dtd">
<svg version="1.0" xmlns="http://www.w3.org/2000/svg"
 width="128.000000pt" height="128.000000pt" viewBox="0 0 128.000000 128.000000"
 preserveAspectRatio="xMidYMid meet">

<g transform="translate(0.000000,128.000000) scale(0.100000,-0.100000)"
fill="#000000" stroke="none">
<path d="M209 1057 c-115 -61 -145 -215 -59 -307 l28 -30 -73 0 c-81 0 -105
-6 -105 -25 0 -20 25 -25 126 -25 87 0 94 -1 94 -20 0 -17 -7 -20 -44 -20 -46
0 -69 -16 -45 -31 8 -5 31 -9 52 -9 30 0 37 -4 37 -20 0 -19 -7 -20 -111 -20
-100 0 -110 -2 -107 -18 3 -15 18 -17 111 -20 l107 -3 0 -41 c0 -32 -7 -49
-26 -69 -19 -19 -27 -40 -28 -66 l-1 -38 98 -5 c97 -5 97 -5 117 -37 27 -45
87 -63 136 -40 19 10 43 31 52 47 l17 30 192 0 191 0 20 -34 c29 -48 88 -66
138 -43 19 10 43 30 52 47 14 23 25 30 57 32 l40 3 3 122 3 123 -45 67 c-61
94 -85 106 -218 111 l-108 5 0 63 c0 56 -3 68 -29 96 l-29 33 -179 3 -179 3
-12 33 c-25 69 -110 125 -188 126 -24 0 -59 -10 -85 -23z m161 -37 c128 -65
107 -253 -33 -291 -144 -39 -256 137 -160 252 50 59 124 74 193 39z m480 -160
c19 -19 20 -33 20 -225 l0 -205 -305 0 -305 0 0 39 c0 36 3 40 27 43 39 4 43
36 6 40 -17 2 -29 10 -31 21 -3 15 5 17 71 17 54 0 78 4 87 15 16 20 4 24 -85
27 -57 3 -70 6 -73 21 -3 15 8 17 126 17 137 0 162 4 162 25 0 18 -23 25 -82
25 l-50 0 31 35 c17 20 36 56 42 80 l11 45 164 0 c151 0 166 -2 184 -20z m290
-200 c11 -6 38 -37 60 -70 l40 -59 0 -100 0 -101 -25 0 c-14 0 -25 6 -25 14 0
25 -41 66 -79 77 -50 15 -101 -8 -127 -57 -14 -26 -25 -34 -46 -34 l-28 0 0
170 0 170 106 0 c58 0 114 -5 124 -10z m-768 -300 c-17 -29 -19 -30 -94 -30
-69 0 -77 2 -71 18 11 33 36 42 109 42 l73 0 -17 -30z m151 2 c27 -24 19 -80
-14 -105 -53 -38 -125 18 -104 80 18 51 75 63 118 25z m347 -2 l0 -30 -143 0
-143 0 -11 30 -11 30 154 0 154 0 0 -30z m263 2 c47 -42 -10 -137 -70 -116
-38 13 -60 55 -48 91 18 51 75 63 118 25z"/>
<path d="M286 974 c-3 -9 -6 -33 -6 -55 0 -25 -8 -51 -21 -68 -20 -27 -19 -51
2 -51 5 0 22 19 39 42 29 40 39 93 24 132 -8 21 -30 21 -38 0z"/>
<path d="M1022 563 l3 -88 81 -3 c106 -4 119 8 83 76 -45 85 -65 102 -120 102
l-50 0 3 -87z m108 5 c16 -22 30 -45 30 -50 0 -4 -22 -8 -50 -8 l-50 0 0 50
c0 43 3 50 20 50 12 0 32 -17 50 -42z"/>
<path d="M449 334 c-15 -18 -2 -47 24 -52 25 -5 40 33 21 52 -19 20 -28 20
-45 0z"/>
<path d="M1059 334 c-16 -20 0 -49 27 -49 35 0 28 64 -7 65 -4 0 -12 -7 -20
-16z"/>
</g>
</svg>
